# xmcd
#
# Track frame offsets: 
#        150
#        16143
#        30475
#        46008
#        59845
#        93345
#        113380
#        147723
#        161590
#        174665
#        188328
#        201918
#        210933
#        224763
#        237850
#
# Disc length: 3424 seconds
#
# Revision: 2
# Processed by: cddbd v1.5.2PL0 Copyright (c) Steve Scherf et al.
# Submitted via: ExactAudioCopy v0.90b4
#
DISCID=cb0d5e0f
DTITLE=Various Artist - Ain't Misbehaving
DYEAR=1900
DGENRE=Jazz
TTITLE0=Duke Ellington - I Can't Believe That You're In Love With Me
TTITLE1=Count Basie and His Orchestra - Jumping At The Woodside
TTITLE2=Theolonius Monk - Smoke Gets In Your Eyes
TTITLE3=Woody Herman - Exactly Like You
TTITLE4=Lester Young - I Cover The Waterfront
TTITLE5=Count Basie and His Orchestra - Flat Foot Boogie
TTITLE6=Carmen McCrae - New York State Of Mind
TTITLE7=Miles Davis - A Night In Tunisia
TTITLE8=Count Basie and His Orchestra - Shorty Georgie
TTITLE9=Stanley Turrentine - I'll Take You All The Way There
TTITLE10=Charlie Parker and Miles Davis - Ornithology
TTITLE11=Fats Waller - Ain't Misbehaving and Handful Of Keys
TTITLE12=Billie Holliday - They Can't Take That Away From Me
TTITLE13=Duke Ellington - Suddenly It Jumped
TTITLE14=Count Basie and His Orchestra - Lester Leaps In
EXTD=
EXTT0=
EXTT1=
EXTT2=
EXTT3=
EXTT4=
EXTT5=
EXTT6=
EXTT7=
EXTT8=
EXTT9=
EXTT10=
EXTT11=
EXTT12=
EXTT13=
EXTT14=
PLAYORDER=
